<svg width="1920" height="1086" viewBox="0 0 1920 1086" fill="none" xmlns="http://www.w3.org/2000/svg">
<rect width="1920" height="1086" fill="#DFDAE3"/>
<path d="M153.974 236.669L166.076 366.677H141.872L153.974 236.669Z" fill="#75C9C8" fill-opacity="0.6"/>
<path d="M22.9738 686.669L35.0755 816.677H10.8721L22.9738 686.669Z" fill="#75C9C8" fill-opacity="0.6"/>
<path d="M176.681 202L200.884 358.01H152.478L176.681 202Z" fill="#75C9C8" fill-opacity="0.6"/>
<path d="M806.948 3L831.151 159.01H782.744L806.948 3Z" fill="#75C9C8" fill-opacity="0.6"/>
<path d="M1124.95 548L1149.15 704.01H1100.74L1124.95 548Z" fill="#75C9C8" fill-opacity="0.6"/>
<path d="M197.643 268.861L218.821 374.725H176.465L197.643 268.861Z" fill="#75C9C8" fill-opacity="0.6"/>
<path d="M827.909 69.8615L849.087 175.725H806.731L827.909 69.8615Z" fill="#75C9C8" fill-opacity="0.6"/>
<path d="M1145.91 614.861L1167.09 720.725H1124.73L1145.91 614.861Z" fill="#75C9C8" fill-opacity="0.6"/>
<path d="M37.4542 719L58.6321 824.864H16.2762L37.4542 719Z" fill="#75C9C8" fill-opacity="0.6"/>
<path d="M531.467 414.003L546.594 519.867H516.34L531.467 414.003Z" fill="#75C9C8" fill-opacity="0.6"/>
<path d="M650.467 844.622L665.594 950.486H635.34L650.467 844.622Z" fill="#75C9C8" fill-opacity="0.6"/>
<path d="M552.428 374.382L576.631 530.392H528.225L552.428 374.382Z" fill="#75C9C8" fill-opacity="0.6"/>
<path d="M671.428 805L695.631 961.01H647.225L671.428 805Z" fill="#75C9C8" fill-opacity="0.6"/>
<path d="M1504.39 609.635L1528.6 765.645H1480.19L1504.39 609.635Z" fill="#75C9C8" fill-opacity="0.6"/>
<path d="M1527.1 651.733L1545.25 766.883H1508.95L1527.1 651.733Z" fill="#75C9C8" fill-opacity="0.6"/>
<path d="M1783.87 716.118L1808.07 872.128H1759.67L1783.87 716.118Z" fill="#75C9C8" fill-opacity="0.6"/>
<path d="M1470.5 172L1485.66 271H1455.34L1470.5 172Z" fill="#75C9C8" fill-opacity="0.6"/>
<path d="M1811.95 746L1836.15 902.01H1787.74L1811.95 746Z" fill="#75C9C8" fill-opacity="0.6"/>
<path d="M1488.5 191L1503.66 290H1473.34L1488.5 191Z" fill="#75C9C8" fill-opacity="0.6"/>
<path d="M1870.33 362L1878.65 415.861H1862.01L1870.33 362Z" fill="#75C9C8" fill-opacity="0.3"/>
<path d="M1858.11 374.382L1866.43 428.242H1849.79L1858.11 374.382Z" fill="#75C9C8" fill-opacity="0.3"/>
</svg>
