<svg viewBox="0 0 1920 721" fill="none" xmlns="http://www.w3.org/2000/svg">
<path d="M74.0971 379.521L-34.8815 420.064C-40.3636 422.103 -44 427.336 -44 433.185V603.669C-44 611.471 -37.6223 617.768 -29.8208 617.668L3229.67 575.916C3236.91 575.823 3242.89 570.213 3243.45 562.986L3263.12 306.121C3263.32 303.503 3262.78 300.881 3261.56 298.555L3137.57 61.8792C3133.52 54.1523 3123.47 51.9686 3116.58 57.3195L2813.85 292.462C2807.23 297.601 2797.61 295.818 2793.28 288.649L2696.22 128.123C2691.27 119.927 2679.73 119.015 2673.55 126.331L2395.14 455.835C2391.99 459.564 2387.12 461.382 2382.3 460.633L2152.01 424.871C2146.49 424.012 2142 419.945 2140.6 414.528L2103.28 269.606C2102.92 268.175 2102.32 266.811 2101.53 265.566L2011.89 125.104C2007.29 117.901 1997.37 116.461 1990.91 122.059L1833.86 258.248C1828.01 263.323 1819.14 262.68 1814.08 256.812L1697.61 121.705C1692.67 115.981 1684.09 115.207 1678.21 119.956L1540.58 231.125C1539.23 232.217 1538.09 233.551 1537.23 235.058L1465.3 360.656C1460.52 368.986 1448.98 370.153 1442.64 362.945L1362.11 271.411C1359.86 268.856 1358.62 265.568 1358.62 262.164V179.857C1358.62 177.22 1357.88 174.637 1356.47 172.404L1306.09 92.2896C1300.54 83.4648 1287.64 83.584 1282.25 92.5099L1233.1 173.971C1232.36 175.197 1231.44 176.302 1230.36 177.248L1065.21 322.577C1059.4 327.687 1050.55 327.119 1045.44 321.309L932.147 192.403C925.37 184.692 912.874 186.655 908.788 196.073L815.144 411.944C812.302 418.495 804.984 421.858 798.162 419.747L594.329 356.677C591.554 355.818 589.114 354.116 587.348 351.809L541.428 291.78C534.141 282.254 519.032 285.702 516.599 297.446L495.44 399.598C493.249 410.176 480.411 414.392 472.375 407.172L292.659 245.704C285.568 239.333 274.323 241.757 270.486 250.482L199.864 411.094C196.831 417.992 188.881 421.252 181.878 418.469L84.1488 379.632C80.9275 378.352 77.3459 378.313 74.0971 379.521Z" fill="#EDEDED"/>
<path d="M80.7145 324.654C45.7687 398.377 -20.0944 533.884 -41.1184 564.322C-42.3796 566.148 -43.1266 568.289 -43.1266 570.508V690.807C-43.1266 696.33 -38.6494 700.807 -33.1265 700.807H3356.49C3362.01 700.807 3366.49 696.33 3366.49 690.807V132.182C3366.49 129.97 3365.75 127.821 3364.4 126.07L3298.67 40.9318C3294.44 35.4627 3286.08 35.8221 3282.34 41.6333L3152.33 243.739C3148.7 249.379 3140.66 249.92 3136.31 244.816L2962.63 41.0686C2958.02 35.6547 2949.39 36.6548 2946.13 42.9803L2748.07 427.886C2744.42 434.989 2734.32 435.151 2730.44 428.169L2586.88 169.903C2583.91 164.549 2576.86 163.105 2572.02 166.855L2330.82 353.678C2325.66 357.67 2318.13 355.742 2315.53 349.765L2224.39 140.517C2221.79 134.551 2214.28 132.616 2209.12 136.586L1889.55 382.6C1885.8 385.484 1880.54 385.35 1876.95 382.278L1543.03 96.9067C1538.82 93.3096 1532.49 93.8173 1528.91 98.0391L1349.68 309.269C1346.52 312.999 1341.12 313.892 1336.92 311.379L1089.97 163.52C1086.2 161.264 1081.4 161.73 1078.14 164.669L864.03 357.488C861.26 359.983 857.332 360.73 853.84 359.426L739.737 316.832C737.824 316.118 736.175 314.835 735.012 313.155L672.693 223.135C669.07 217.901 661.543 217.34 657.184 221.979L533.462 353.64C529.46 357.899 522.674 357.833 518.756 353.497L399.602 221.659C395.479 217.097 388.259 217.295 384.37 222.059C346.371 268.598 276.752 349.5 252.124 361.547C227.457 373.614 141.511 340.957 93.9607 319.819C88.9465 317.59 83.0649 319.695 80.7145 324.654Z" fill="#E7E7E7"/>
<path d="M261.033 277.456L-38.0381 540.738C-41.2729 543.585 -43.1266 547.687 -43.1266 551.997V718C-43.1266 726.284 -36.4108 733 -28.1265 733H3293.84C3302.13 733 3308.84 726.284 3308.84 718V338.409C3308.84 334.809 3307.55 331.33 3305.2 328.605L3036.1 16.9826C3029.11 8.89377 3016.15 10.4967 3011.35 20.0433L2903.92 233.514C2900.64 240.02 2893.17 243.234 2886.2 241.134L2682.93 179.943C2675.68 177.763 2667.95 181.316 2664.89 188.231L2563.52 417.042C2559.33 426.506 2547.04 428.98 2539.51 421.874L2389.43 280.189C2383.74 274.814 2374.89 274.706 2369.03 279.892C2324.33 319.407 2247.17 381.929 2229.09 374.27C2210.15 366.251 2007.6 136.94 1898.99 12.1908C1893.26 5.60767 1883.15 5.29184 1877.01 11.4962L1568.26 323.507C1562.98 328.845 1554.57 329.454 1548.57 324.932L1324.43 155.877C1316.95 150.239 1306.2 152.752 1301.99 161.118L1221.49 321.346C1218.17 327.955 1210.53 331.157 1203.49 328.89L1025.26 271.504C1023.54 270.95 1021.93 270.09 1020.52 268.965L831.534 118.667C824.789 113.302 814.92 114.712 809.947 121.751L595.161 425.741C590.833 431.867 582.646 433.854 575.991 430.394L277.863 275.406C272.368 272.549 265.681 273.364 261.033 277.456Z" fill="#DED9E2" fill-opacity="0.9"/>
<path d="M339.407 262.493L363.61 418.503H315.204L339.407 262.493Z" fill="#75C9C8" fill-opacity="0.6"/>
<path d="M368.228 336.784L382.598 431.504H353.857L368.228 336.784Z" fill="#75C9C8" fill-opacity="0.6"/>
<path d="M827.617 304.591L837.45 377.025H817.785L827.617 304.591Z" fill="#75C9C8" fill-opacity="0.6"/>
<path d="M539.407 282.304L544.701 319.449H534.113L539.407 282.304Z" fill="#75C9C8" fill-opacity="0.5"/>
<path d="M534.167 282.304L539.462 321.307H528.873L534.167 282.304Z" fill="#75C9C8" fill-opacity="0.5"/>
<path d="M847.704 255.064L871.908 370.215H823.501L847.704 255.064Z" fill="#75C9C8" fill-opacity="0.6"/>
<path d="M744.648 552.226L765.826 671.091H723.47L744.648 552.226Z" fill="#75C9C8" fill-opacity="0.6"/>
<path d="M763.862 495.27L788.065 651.28H739.658L763.862 495.27Z" fill="#75C9C8" fill-opacity="0.6"/>
<path d="M784.822 552.226L802.975 641.375H766.67L784.822 552.226Z" fill="#75C9C8" fill-opacity="0.6"/>
<path d="M1331.55 492.794L1355.75 648.804H1307.34L1331.55 492.794Z" fill="#75C9C8" fill-opacity="0.6"/>
<path d="M1347.27 505.176L1363.91 631.47H1330.63L1347.27 505.176Z" fill="#75C9C8" fill-opacity="0.6"/>
<path d="M1435.48 376.405L1448.34 446.981H1422.62L1435.48 376.405Z" fill="#75C9C8" fill-opacity="0.6"/>
<path d="M1417.14 319.449L1435.29 442.029H1398.99L1417.14 319.449Z" fill="#75C9C8" fill-opacity="0.6"/>
<path d="M1694.87 121.341L1699.41 147.343H1690.33L1694.87 121.341Z" fill="#75C9C8" fill-opacity="0.5"/>
<path d="M1687.88 104.007L1693.93 144.867H1681.83L1687.88 104.007Z" fill="#75C9C8" fill-opacity="0.5"/>
<path d="M1568.23 121.341L1579.58 177.059H1556.88L1568.23 121.341Z" fill="#75C9C8" fill-opacity="0.3"/>
<path d="M1581.33 79.2433L1596.46 175.821H1566.2L1581.33 79.2433Z" fill="#75C9C8" fill-opacity="0.3"/>
<path d="M1100.98 141.152L1113.08 217.3H1088.88L1100.98 141.152Z" fill="#75C9C8" fill-opacity="0.3"/>
<path d="M1115.83 168.392L1127.17 222.253H1104.48L1115.83 168.392Z" fill="#75C9C8" fill-opacity="0.3"/>
<path d="M116.699 297.162L128.044 369.595H105.354L116.699 297.162Z" fill="#75C9C8" fill-opacity="0.3"/>
<path d="M104.472 341.737L112.792 378.882H96.152L104.472 341.737Z" fill="#75C9C8" fill-opacity="0.3"/>
<path d="M128.053 336.784L132.591 372.072H123.515L128.053 336.784Z" fill="#75C9C8" fill-opacity="0.3"/>
<path d="M311.459 354.118L325.073 426.552H297.845L311.459 354.118Z" fill="#75C9C8" fill-opacity="0.6"/>
</svg>
