<svg width="1920" height="1106" viewBox="0 0 1920 1106" fill="none" xmlns="http://www.w3.org/2000/svg">
<g clip-path="url(#clip0)">
<rect width="1920" height="1106" fill="#F7F4EA"/>
<path d="M74.0971 764.521L-34.8815 805.064C-40.3636 807.103 -44 812.336 -44 818.185V988.669C-44 996.471 -37.6223 1002.77 -29.8208 1002.67L3229.67 960.916C3236.91 960.823 3242.89 955.213 3243.45 947.986L3263.12 691.121C3263.32 688.503 3262.78 685.881 3261.56 683.555L3137.57 446.879C3133.52 439.152 3123.47 436.969 3116.58 442.319L2813.85 677.462C2807.23 682.601 2797.61 680.818 2793.28 673.649L2696.22 513.123C2691.27 504.927 2679.73 504.015 2673.55 511.331L2395.14 840.835C2391.99 844.564 2387.12 846.382 2382.3 845.633L2152.01 809.871C2146.49 809.012 2142 804.945 2140.6 799.528L2103.28 654.606C2102.92 653.175 2102.32 651.811 2101.53 650.566L2011.89 510.104C2007.29 502.901 1997.37 501.461 1990.91 507.059L1833.86 643.248C1828.01 648.323 1819.14 647.68 1814.08 641.812L1697.61 506.705C1692.67 500.981 1684.09 500.207 1678.21 504.956L1540.58 616.125C1539.23 617.217 1538.09 618.551 1537.23 620.058L1465.3 745.656C1460.52 753.986 1448.98 755.153 1442.64 747.945L1362.11 656.411C1359.86 653.856 1358.62 650.568 1358.62 647.164V564.857C1358.62 562.22 1357.88 559.637 1356.47 557.404L1306.09 477.29C1300.54 468.465 1287.64 468.584 1282.25 477.51L1233.1 558.971C1232.36 560.197 1231.44 561.302 1230.36 562.248L1065.21 707.577C1059.4 712.687 1050.55 712.119 1045.44 706.309L932.147 577.403C925.37 569.692 912.874 571.655 908.788 581.073L815.144 796.944C812.302 803.495 804.984 806.858 798.162 804.747L594.329 741.677C591.554 740.818 589.114 739.116 587.348 736.809L541.428 676.78C534.141 667.254 519.032 670.702 516.599 682.446L495.44 784.598C493.249 795.176 480.411 799.392 472.375 792.172L292.659 630.704C285.568 624.333 274.323 626.757 270.486 635.482L199.864 796.094C196.831 802.992 188.881 806.252 181.878 803.469L84.1488 764.632C80.9275 763.352 77.3459 763.313 74.0971 764.521Z" fill="#EDEDED"/>
<path d="M80.7146 709.654C45.7688 783.377 -20.0943 918.884 -41.1183 949.322C-42.3795 951.148 -43.1265 953.289 -43.1265 955.508V1075.81C-43.1265 1081.33 -38.6493 1085.81 -33.1264 1085.81H3356.49C3362.01 1085.81 3366.49 1081.33 3366.49 1075.81V517.182C3366.49 514.97 3365.75 512.821 3364.4 511.07L3298.67 425.932C3294.44 420.463 3286.08 420.822 3282.34 426.633L3152.33 628.739C3148.7 634.379 3140.66 634.92 3136.31 629.816L2962.63 426.069C2958.02 420.655 2949.39 421.655 2946.13 427.98L2748.07 812.886C2744.42 819.989 2734.32 820.151 2730.44 813.169L2586.88 554.903C2583.91 549.549 2576.86 548.105 2572.02 551.855L2330.82 738.678C2325.66 742.67 2318.13 740.742 2315.53 734.765L2224.39 525.517C2221.79 519.551 2214.28 517.616 2209.12 521.586L1889.55 767.6C1885.8 770.484 1880.54 770.35 1876.95 767.278L1543.03 481.907C1538.82 478.31 1532.49 478.817 1528.91 483.039L1349.68 694.269C1346.52 697.999 1341.12 698.892 1336.92 696.379L1089.97 548.52C1086.2 546.264 1081.4 546.73 1078.14 549.669L864.03 742.488C861.26 744.983 857.332 745.73 853.84 744.426L739.737 701.832C737.824 701.118 736.175 699.835 735.012 698.155L672.693 608.135C669.07 602.901 661.543 602.34 657.184 606.979L533.462 738.64C529.46 742.899 522.674 742.833 518.756 738.497L399.602 606.659C395.479 602.097 388.259 602.295 384.37 607.059C346.371 653.598 276.752 734.5 252.124 746.547C227.457 758.614 141.511 725.957 93.9608 704.819C88.9466 702.59 83.065 704.695 80.7146 709.654Z" fill="#E7E7E7"/>
<path d="M261.033 662.456L-38.038 925.738C-41.2728 928.585 -43.1265 932.687 -43.1265 936.997V1103C-43.1265 1111.28 -36.4107 1118 -28.1264 1118H3293.84C3302.13 1118 3308.84 1111.28 3308.84 1103V723.409C3308.84 719.809 3307.55 716.33 3305.2 713.605L3036.1 401.983C3029.11 393.894 3016.15 395.497 3011.35 405.043L2903.92 618.514C2900.64 625.02 2893.17 628.234 2886.2 626.134L2682.93 564.943C2675.68 562.763 2667.95 566.316 2664.89 573.231L2563.52 802.042C2559.33 811.506 2547.04 813.98 2539.51 806.874L2389.43 665.189C2383.74 659.814 2374.89 659.706 2369.03 664.892C2324.33 704.407 2247.17 766.929 2229.09 759.27C2210.15 751.251 2007.6 521.94 1898.99 397.191C1893.26 390.608 1883.15 390.292 1877.01 396.496L1568.26 708.507C1562.98 713.845 1554.57 714.454 1548.57 709.932L1324.43 540.877C1316.95 535.239 1306.2 537.752 1301.99 546.118L1221.49 706.346C1218.17 712.955 1210.53 716.157 1203.49 713.89L1025.26 656.504C1023.54 655.95 1021.93 655.09 1020.52 653.965L831.534 503.667C824.789 498.302 814.92 499.712 809.947 506.751L595.161 810.741C590.833 816.867 582.646 818.854 575.991 815.394L277.863 660.406C272.368 657.549 265.681 658.364 261.033 662.456Z" fill="#DED9E2" fill-opacity="0.9"/>
<path d="M339.407 647.493L363.61 803.503H315.204L339.407 647.493Z" fill="#75C9C8" fill-opacity="0.6"/>
<path d="M368.228 721.784L382.598 816.504H353.857L368.228 721.784Z" fill="#75C9C8" fill-opacity="0.6"/>
<path d="M827.617 689.591L837.45 762.025H817.785L827.617 689.591Z" fill="#75C9C8" fill-opacity="0.6"/>
<path d="M539.407 667.304L544.701 704.449H534.113L539.407 667.304Z" fill="#75C9C8" fill-opacity="0.5"/>
<path d="M534.167 667.304L539.462 706.307H528.873L534.167 667.304Z" fill="#75C9C8" fill-opacity="0.5"/>
<path d="M847.704 640.064L871.908 755.215H823.501L847.704 640.064Z" fill="#75C9C8" fill-opacity="0.6"/>
<path d="M744.648 937.226L765.826 1056.09H723.47L744.648 937.226Z" fill="#75C9C8" fill-opacity="0.6"/>
<path d="M763.862 880.27L788.065 1036.28H739.658L763.862 880.27Z" fill="#75C9C8" fill-opacity="0.6"/>
<path d="M784.822 937.226L802.975 1026.38H766.67L784.822 937.226Z" fill="#75C9C8" fill-opacity="0.6"/>
<path d="M1331.55 877.794L1355.75 1033.8H1307.34L1331.55 877.794Z" fill="#75C9C8" fill-opacity="0.6"/>
<path d="M1347.27 890.176L1363.91 1016.47H1330.63L1347.27 890.176Z" fill="#75C9C8" fill-opacity="0.6"/>
<path d="M1435.48 761.405L1448.34 831.981H1422.62L1435.48 761.405Z" fill="#75C9C8" fill-opacity="0.6"/>
<path d="M1417.14 704.449L1435.29 827.029H1398.99L1417.14 704.449Z" fill="#75C9C8" fill-opacity="0.6"/>
<path d="M1694.87 506.341L1699.41 532.343H1690.33L1694.87 506.341Z" fill="#75C9C8" fill-opacity="0.5"/>
<path d="M1687.88 489.007L1693.93 529.867H1681.83L1687.88 489.007Z" fill="#75C9C8" fill-opacity="0.5"/>
<path d="M1568.23 506.341L1579.58 562.059H1556.88L1568.23 506.341Z" fill="#75C9C8" fill-opacity="0.3"/>
<path d="M1581.33 464.243L1596.46 560.821H1566.2L1581.33 464.243Z" fill="#75C9C8" fill-opacity="0.3"/>
<path d="M1100.98 526.152L1113.08 602.3H1088.88L1100.98 526.152Z" fill="#75C9C8" fill-opacity="0.3"/>
<path d="M1115.83 553.392L1127.17 607.253H1104.48L1115.83 553.392Z" fill="#75C9C8" fill-opacity="0.3"/>
<path d="M116.699 682.162L128.044 754.595H105.354L116.699 682.162Z" fill="#75C9C8" fill-opacity="0.3"/>
<path d="M104.472 726.737L112.792 763.882H96.1519L104.472 726.737Z" fill="#75C9C8" fill-opacity="0.3"/>
<path d="M128.053 721.784L132.591 757.072H123.515L128.053 721.784Z" fill="#75C9C8" fill-opacity="0.3"/>
<path d="M311.459 739.118L325.073 811.552H297.845L311.459 739.118Z" fill="#75C9C8" fill-opacity="0.6"/>
</g>
<defs>
<clipPath id="clip0">
<rect width="1920" height="1106" fill="white"/>
</clipPath>
</defs>
</svg>
