 <svg
    width="18"
    height="12"
    viewBox="0 0 18 12"
    fill="none"
    xmlns="http://www.w3.org/2000/svg"
>
    <path
        d="M17.7411 0.2459C17.5771 0.0884031 17.3553 0 17.1241 0C16.8929 0 16.671 0.0884031 16.507 0.2459L6.7921 9.58999L1.54078 4.51627C1.38061 4.34919 1.15831 4.25043 0.922775 4.2417C0.687241 4.23298 0.457767 4.31502 0.284836 4.46976C0.111904 4.62451 0.00968023 4.8393 0.000652761 5.06686C-0.00837471 5.29443 0.0765333 5.51615 0.236698 5.68323L6.7921 12L17.7411 1.44668C17.8231 1.36807 17.8883 1.27454 17.9327 1.17149C17.9771 1.06845 18 0.957921 18 0.84629C18 0.734658 17.9771 0.624131 17.9327 0.521084C17.8883 0.418038 17.8231 0.324512 17.7411 0.2459Z"
        fill="#96D480"
    />
</svg>