  <svg
    width="13"
    height="12"
    viewBox="0 0 13 12"
    fill="none"
    xmlns="http://www.w3.org/2000/svg"
>
    <path
        d="M0.25096 0.261676C0.411698 0.100986 0.629676 0.0107157 0.85696 0.0107157C1.08424 0.0107157 1.30222 0.100986 1.46296 0.261676L5.99982 4.79853L10.5367 0.261676C10.6157 0.17981 10.7103 0.114511 10.8149 0.0695886C10.9195 0.0246666 11.0319 0.00102135 11.1458 3.23629e-05C11.2596 -0.000956623 11.3724 0.0207306 11.4778 0.0638285C11.5831 0.106926 11.6788 0.170572 11.7593 0.251051C11.8398 0.331531 11.9034 0.427232 11.9465 0.532572C11.9896 0.637912 12.0113 0.75078 12.0103 0.864591C12.0093 0.978402 11.9857 1.09088 11.9408 1.19545C11.8958 1.30003 11.8305 1.39461 11.7487 1.47368L7.21182 6.01053L11.7487 10.5474C11.9048 10.709 11.9912 10.9256 11.9893 11.1503C11.9873 11.375 11.8972 11.59 11.7382 11.7489C11.5793 11.9079 11.3643 11.998 11.1396 12C10.9148 12.0019 10.6983 11.9155 10.5367 11.7594L5.99982 7.22253L1.46296 11.7594C1.3013 11.9155 1.08478 12.0019 0.860044 12C0.635304 11.998 0.420322 11.9079 0.261401 11.7489C0.10248 11.59 0.0123351 11.375 0.0103821 11.1503C0.00842921 10.9256 0.0948244 10.709 0.25096 10.5474L4.78782 6.01053L0.25096 1.47368C0.0902704 1.31294 0 1.09496 0 0.867676C0 0.640392 0.0902704 0.422414 0.25096 0.261676V0.261676Z"
        fill="#D48080"
    />
</svg>