 <svg
    width="14"
    height="15"
    viewBox="0 0 14 15"
    fill="none"
    xmlns="http://www.w3.org/2000/svg"
>
    <path
        d="M9.69231 1.875H12.9231C13.5692 1.875 14 2.25 14 2.8125V3.75H0V2.8125C0 2.25 0.538462 1.875 1.07692 1.875H4.30769C4.52308 0.84375 5.70769 0 7 0C8.29231 0 9.47692 0.84375 9.69231 1.875ZM5.38462 1.875H8.61538C8.4 1.3125 7.64615 0.9375 7 0.9375C6.35385 0.9375 5.6 1.3125 5.38462 1.875ZM1.07692 4.6875H12.9231L11.9538 14.1563C11.9538 14.625 11.4154 15 10.8769 15H3.12308C2.58462 15 2.15385 14.625 2.04615 14.1563L1.07692 4.6875Z"
        fill="#C4C4C4"
    />
</svg>