<svg width="24" height="24" viewBox="0 0 24 24" fill="none" xmlns="http://www.w3.org/2000/svg">
<path d="M20.2499 21C20.1514 21.0001 20.0538 20.9808 19.9628 20.9431C19.8718 20.9053 19.7892 20.85 19.7197 20.7801L3.21969 4.28013C3.08498 4.13833 3.01099 3.94952 3.01349 3.75395C3.01599 3.55838 3.0948 3.37152 3.2331 3.23322C3.3714 3.09492 3.55826 3.01612 3.75383 3.01361C3.9494 3.01111 4.13821 3.0851 4.28001 3.21982L20.78 19.7198C20.8848 19.8247 20.9562 19.9583 20.9851 20.1038C21.014 20.2492 20.9992 20.3999 20.9424 20.5369C20.8857 20.6739 20.7896 20.791 20.6664 20.8735C20.5431 20.9559 20.3981 20.9999 20.2499 21V21Z" fill="#C5C5C5"/>
<path d="M11.625 14.8054L9.19736 12.3778C9.18345 12.364 9.16557 12.3549 9.14623 12.3518C9.12688 12.3487 9.10705 12.3517 9.08952 12.3604C9.07199 12.3692 9.05763 12.3832 9.04847 12.4005C9.03931 12.4178 9.03581 12.4376 9.03846 12.457C9.13646 13.0868 9.43219 13.6692 9.88291 14.1199C10.3336 14.5706 10.916 14.8663 11.5458 14.9643C11.5652 14.967 11.585 14.9635 11.6023 14.9543C11.6196 14.9452 11.6336 14.9308 11.6424 14.9133C11.6511 14.8957 11.6541 14.8759 11.651 14.8566C11.6479 14.8372 11.6388 14.8193 11.625 14.8054Z" fill="#C5C5C5"/>
<path d="M12.3748 9.19455L14.8062 11.625C14.8201 11.639 14.8381 11.6483 14.8575 11.6515C14.8769 11.6547 14.8969 11.6517 14.9145 11.6429C14.9322 11.6342 14.9466 11.6201 14.9558 11.6026C14.9649 11.5852 14.9684 11.5653 14.9656 11.5458C14.8679 10.9151 14.5719 10.3319 14.1206 9.88063C13.6693 9.42935 13.0861 9.1334 12.4555 9.03564C12.4359 9.03263 12.4159 9.03586 12.3984 9.04489C12.3808 9.05391 12.3665 9.06825 12.3576 9.08588C12.3486 9.1035 12.3455 9.1235 12.3486 9.14301C12.3517 9.16253 12.3609 9.18057 12.3748 9.19455V9.19455Z" fill="#C5C5C5"/>
<path d="M23.0157 12.8137C23.1709 12.5702 23.253 12.2872 23.2521 11.9984C23.2513 11.7096 23.1676 11.4271 23.0111 11.1844C21.7707 9.26625 20.1615 7.63687 18.3578 6.47203C16.3595 5.18203 14.1564 4.5 11.9851 4.5C10.8405 4.50157 9.70363 4.6882 8.61856 5.05266C8.58819 5.06276 8.56091 5.08046 8.53932 5.10409C8.51773 5.12772 8.50255 5.15647 8.49522 5.18763C8.48789 5.21878 8.48865 5.25129 8.49744 5.28207C8.50623 5.31284 8.52276 5.34085 8.54543 5.36344L10.7598 7.57781C10.7828 7.60086 10.8114 7.61752 10.8428 7.62615C10.8742 7.63478 10.9073 7.63508 10.9389 7.62703C11.6895 7.44412 12.4745 7.45752 13.2184 7.66595C13.9623 7.87438 14.64 8.27082 15.1863 8.8171C15.7326 9.36338 16.129 10.0411 16.3374 10.785C16.5459 11.5289 16.5593 12.3139 16.3764 13.0645C16.3684 13.096 16.3688 13.129 16.3774 13.1603C16.386 13.1916 16.4026 13.2202 16.4256 13.2431L19.6107 16.4306C19.6439 16.4638 19.6883 16.4834 19.7351 16.4855C19.782 16.4876 19.8279 16.472 19.8639 16.4419C21.0899 15.3968 22.1524 14.1739 23.0157 12.8137Z" fill="#C5C5C5"/>
<path d="M12 16.4999C11.3188 16.5 10.6465 16.3454 10.0337 16.0477C9.42094 15.7501 8.88375 15.3173 8.46263 14.7818C8.04151 14.2464 7.74745 13.6223 7.60262 12.9567C7.45779 12.291 7.46598 11.6012 7.62656 10.9392C7.63452 10.9077 7.63417 10.8747 7.62555 10.8434C7.61692 10.8121 7.60031 10.7835 7.57734 10.7606L4.44422 7.62604C4.41099 7.59278 4.36649 7.57321 4.31952 7.57121C4.27255 7.56922 4.22655 7.58494 4.19062 7.61526C3.04734 8.59073 1.9875 9.7776 1.01859 11.1646C0.84899 11.4081 0.755584 11.6964 0.750243 11.993C0.744901 12.2897 0.827865 12.5812 0.988591 12.8306C2.22656 14.7679 3.81937 16.3996 5.59547 17.5485C7.59656 18.8437 9.74625 19.4999 11.985 19.4999C13.1412 19.4968 14.2899 19.3142 15.39 18.9585C15.4206 18.9488 15.4482 18.9312 15.4702 18.9077C15.4921 18.8842 15.5076 18.8554 15.5152 18.8241C15.5227 18.7929 15.5222 18.7602 15.5134 18.7292C15.5047 18.6982 15.4882 18.67 15.4655 18.6473L13.2403 16.4226C13.2174 16.3996 13.1888 16.383 13.1575 16.3744C13.1262 16.3658 13.0932 16.3654 13.0617 16.3734C12.7141 16.4576 12.3577 16.5001 12 16.4999V16.4999Z" fill="#C5C5C5"/>
</svg>
