<svg width="24" height="16" viewBox="0 0 24 16" fill="none" xmlns="http://www.w3.org/2000/svg">
<path d="M12 11C13.6569 11 15 9.65685 15 8C15 6.34315 13.6569 5 12 5C10.3431 5 9 6.34315 9 8C9 9.65685 10.3431 11 12 11Z" fill="#C5C5C5"/>
<path d="M23.0083 7.18438C21.768 5.26625 20.1588 3.63688 18.355 2.47203C16.3596 1.18203 14.1565 0.5 11.9843 0.5C9.99114 0.5 8.0313 1.06953 6.15911 2.19266C4.24989 3.33781 2.5202 5.01078 1.01786 7.16469C0.848258 7.40811 0.754852 7.69646 0.74951 7.99309C0.744168 8.28973 0.827132 8.58125 0.987859 8.83063C2.22583 10.768 3.81911 12.3997 5.59473 13.5486C7.59395 14.8437 9.74552 15.5 11.9843 15.5C14.1738 15.5 16.3816 14.8236 18.3686 13.5444C20.1715 12.3833 21.7774 10.7478 23.013 8.81375C23.1682 8.57017 23.2503 8.28719 23.2494 7.99838C23.2486 7.70956 23.1649 7.42705 23.0083 7.18438V7.18438ZM12.0002 12.5C11.1102 12.5 10.2402 12.2361 9.50014 11.7416C8.76012 11.2471 8.18334 10.5443 7.84275 9.72208C7.50215 8.89981 7.41304 7.99501 7.58667 7.12209C7.7603 6.24918 8.18889 5.44736 8.81822 4.81802C9.44756 4.18868 10.2494 3.7601 11.1223 3.58647C11.9952 3.41283 12.9 3.50195 13.7223 3.84254C14.5445 4.18314 15.2474 4.75991 15.7418 5.49993C16.2363 6.23995 16.5002 7.10998 16.5002 8C16.4988 9.19306 16.0243 10.3369 15.1807 11.1805C14.3371 12.0241 13.1933 12.4986 12.0002 12.5V12.5Z" fill="#C5C5C5"/>
</svg>
