<svg width="22" height="18" viewBox="0 0 22 18" fill="none" xmlns="http://www.w3.org/2000/svg">
<path d="M14.8363 15.4908L12.617 13.2702C11.7588 13.577 10.8311 13.6339 9.94183 13.4341C9.05258 13.2342 8.23835 12.786 7.59388 12.1416C6.94941 11.4971 6.50119 10.6829 6.30139 9.79361C6.10159 8.90436 6.15841 7.97666 6.46525 7.11844L3.63275 4.28594C1.28975 6.36907 0 8.73682 0 8.73682C0 8.73682 4.125 16.2993 11 16.2993C12.3206 16.2947 13.6262 16.0196 14.8363 15.4908ZM7.16375 1.98282C8.37382 1.45403 9.67944 1.17886 11 1.17432C17.875 1.17432 22 8.73682 22 8.73682C22 8.73682 20.7089 11.1032 18.3686 13.1891L15.5334 10.3538C15.8402 9.4956 15.897 8.56789 15.6972 7.67864C15.4974 6.78939 15.0492 5.97516 14.4047 5.33069C13.7603 4.68622 12.946 4.23801 12.0568 4.03821C11.1675 3.8384 10.2398 3.89523 9.38163 4.20207L7.16375 1.98419V1.98282Z" fill="#C5C5C5"/>
<path d="M7.59669 8.25004C7.52106 8.77846 7.56953 9.31724 7.73827 9.82369C7.907 10.3301 8.19137 10.7903 8.56883 11.1678C8.94629 11.5452 9.40648 11.8296 9.91292 11.9983C10.4194 12.1671 10.9581 12.2155 11.4866 12.1399L7.59532 8.25004H7.59669ZM14.4029 9.22354L10.5131 5.33229C11.0415 5.25665 11.5803 5.30512 12.0867 5.47386C12.5932 5.6426 13.0533 5.92697 13.4308 6.30443C13.8083 6.68189 14.0926 7.14207 14.2614 7.64851C14.4301 8.15496 14.4786 8.69374 14.4029 9.22216V9.22354Z" fill="#C5C5C5"/>
<path fill-rule="evenodd" clip-rule="evenodd" d="M18.7632 17.4735L2.26318 0.9735L3.23668 0L19.7367 16.5L18.7632 17.4735Z" fill="#C5C5C5"/>
</svg>
