<svg width="24" height="24" viewBox="0 0 24 24" fill="none" xmlns="http://www.w3.org/2000/svg">
<path d="M12 15C13.6569 15 15 13.6569 15 12C15 10.3431 13.6569 9 12 9C10.3431 9 9 10.3431 9 12C9 13.6569 10.3431 15 12 15Z" fill="#C5C5C5"/>
<path d="M23.0083 11.1844C21.768 9.26625 20.1588 7.63688 18.355 6.47203C16.3596 5.18203 14.1565 4.5 11.9843 4.5C9.99114 4.5 8.0313 5.06953 6.15911 6.19266C4.24989 7.33781 2.5202 9.01078 1.01786 11.1647C0.848258 11.4081 0.754852 11.6965 0.74951 11.9931C0.744168 12.2897 0.827132 12.5813 0.987859 12.8306C2.22583 14.768 3.81911 16.3997 5.59473 17.5486C7.59395 18.8438 9.74552 19.5 11.9843 19.5C14.1738 19.5 16.3816 18.8236 18.3686 17.5444C20.1715 16.3833 21.7774 14.7478 23.013 12.8137C23.1682 12.5702 23.2503 12.2872 23.2494 11.9984C23.2486 11.7096 23.1649 11.4271 23.0083 11.1844ZM12.0002 16.5C11.1102 16.5 10.2402 16.2361 9.50014 15.7416C8.76012 15.2471 8.18334 14.5443 7.84275 13.7221C7.50215 12.8998 7.41304 11.995 7.58667 11.1221C7.7603 10.2492 8.18889 9.44736 8.81822 8.81802C9.44756 8.18868 10.2494 7.7601 11.1223 7.58647C11.9952 7.41283 12.9 7.50195 13.7223 7.84254C14.5445 8.18314 15.2474 8.75991 15.7418 9.49993C16.2363 10.24 16.5002 11.11 16.5002 12C16.4988 13.1931 16.0243 14.3369 15.1807 15.1805C14.3371 16.0241 13.1933 16.4986 12.0002 16.5Z" fill="#C5C5C5"/>
</svg>
