<svg width="205" height="76" viewBox="0 0 205 76" fill="none" xmlns="http://www.w3.org/2000/svg">
<g opacity="0.4">
<rect x="0.5" y="57.5" width="31" height="18" stroke="#ECD975"/>
<g style="mix-blend-mode:exclusion">
<rect x="32.5" y="0.5" width="31" height="18" stroke="#D48080"/>
</g>
<rect x="32.5" y="38.5" width="31" height="18" stroke="#DDDCDC"/>
<rect x="0.5" y="19.5" width="31" height="18" stroke="#80C5D4"/>
</g>
<path d="M4.992 55V54.68L6.304 54.36C7.17867 54.168 7.616 53.6347 7.616 52.76V34.52H4.896C4.10667 34.52 3.54133 34.7333 3.2 35.16C2.85867 35.5653 2.496 36.1307 2.112 36.856L0.96 39.096H0.64L0.8 33.88H19.264L19.392 39.096H19.072L17.92 36.856C17.5573 36.1307 17.2053 35.5653 16.864 35.16C16.5227 34.7333 15.9573 34.52 15.168 34.52H12.448V52.76C12.448 53.6347 12.8853 54.168 13.76 54.36L15.072 54.68V55H4.992ZM19.5463 55V54.68L20.0263 54.552C20.4529 54.424 20.7409 54.232 20.8903 53.976C21.0609 53.72 21.1463 53.3893 21.1463 52.984V42.968C21.1463 42.4987 21.0609 42.1573 20.8903 41.944C20.7409 41.7093 20.4529 41.5493 20.0263 41.464L19.5463 41.336V41.016L25.0503 39.16L25.3703 39.48L25.6583 42.232V42.488C25.9569 41.8907 26.3409 41.3467 26.8103 40.856C27.3009 40.344 27.8343 39.928 28.4103 39.608C29.0076 39.288 29.5943 39.128 30.1703 39.128C30.9809 39.128 31.5996 39.352 32.0263 39.8C32.4529 40.248 32.6663 40.8133 32.6663 41.496C32.6663 42.2213 32.4529 42.7867 32.0263 43.192C31.6209 43.576 31.1303 43.768 30.5543 43.768C29.6583 43.768 28.8689 43.32 28.1863 42.424L28.1223 42.36C27.9089 42.0613 27.6636 41.9013 27.3863 41.88C27.1089 41.8373 26.8529 41.9653 26.6183 42.264C26.4049 42.456 26.2236 42.6907 26.0743 42.968C25.9463 43.224 25.8183 43.5227 25.6903 43.864V52.792C25.6903 53.6453 26.0636 54.1787 26.8103 54.392L27.8343 54.68V55H19.5463ZM41.2033 39.128C42.5899 39.128 43.7739 39.416 44.7553 39.992C45.7366 40.5467 46.4833 41.3147 46.9953 42.296C47.5286 43.256 47.7953 44.3547 47.7953 45.592C47.7953 45.8267 47.7846 46.072 47.7633 46.328C47.7419 46.5627 47.6993 46.776 47.6353 46.968H38.0993C38.1206 49.272 38.5259 50.936 39.3153 51.96C40.1259 52.9627 41.3206 53.464 42.8993 53.464C43.9659 53.464 44.8299 53.2933 45.4913 52.952C46.1526 52.6107 46.7713 52.1093 47.3473 51.448L47.6673 51.736C47.0059 52.9093 46.1206 53.8267 45.0113 54.488C43.9233 55.1493 42.6113 55.48 41.0753 55.48C39.5606 55.48 38.2166 55.16 37.0433 54.52C35.8699 53.8587 34.9526 52.92 34.2913 51.704C33.6299 50.488 33.2993 49.0373 33.2993 47.352C33.2993 45.6027 33.6833 44.12 34.4513 42.904C35.2193 41.6667 36.2006 40.728 37.3953 40.088C38.6113 39.448 39.8806 39.128 41.2033 39.128ZM41.1073 39.768C40.4886 39.768 39.9553 39.96 39.5073 40.344C39.0806 40.7067 38.7393 41.368 38.4833 42.328C38.2486 43.2667 38.1206 44.6 38.0993 46.328H43.5713C43.7846 44.0027 43.6993 42.328 43.3153 41.304C42.9313 40.28 42.1953 39.768 41.1073 39.768ZM57.422 39.128C58.8087 39.128 59.9927 39.416 60.974 39.992C61.9553 40.5467 62.702 41.3147 63.214 42.296C63.7473 43.256 64.014 44.3547 64.014 45.592C64.014 45.8267 64.0033 46.072 63.982 46.328C63.9607 46.5627 63.918 46.776 63.854 46.968H54.318C54.3393 49.272 54.7447 50.936 55.534 51.96C56.3447 52.9627 57.5393 53.464 59.118 53.464C60.1847 53.464 61.0487 53.2933 61.71 52.952C62.3713 52.6107 62.99 52.1093 63.566 51.448L63.886 51.736C63.2247 52.9093 62.3393 53.8267 61.23 54.488C60.142 55.1493 58.83 55.48 57.294 55.48C55.7793 55.48 54.4353 55.16 53.262 54.52C52.0887 53.8587 51.1713 52.92 50.51 51.704C49.8487 50.488 49.518 49.0373 49.518 47.352C49.518 45.6027 49.902 44.12 50.67 42.904C51.438 41.6667 52.4193 40.728 53.614 40.088C54.83 39.448 56.0993 39.128 57.422 39.128ZM57.326 39.768C56.7073 39.768 56.174 39.96 55.726 40.344C55.2993 40.7067 54.958 41.368 54.702 42.328C54.4673 43.2667 54.3393 44.6 54.318 46.328H59.79C60.0033 44.0027 59.918 42.328 59.534 41.304C59.15 40.28 58.414 39.768 57.326 39.768ZM68.1795 55V54.68L69.4915 54.36C70.3662 54.168 70.8035 53.6347 70.8035 52.76V34.52H68.0835C67.2942 34.52 66.7288 34.7333 66.3875 35.16C66.0462 35.5653 65.6835 36.1307 65.2995 36.856L64.1475 39.096H63.8275L63.9875 33.88H82.4515L82.5795 39.096H82.2595L81.1075 36.856C80.7448 36.1307 80.3928 35.5653 80.0515 35.16C79.7102 34.7333 79.1448 34.52 78.3555 34.52H75.6355V52.76C75.6355 53.6347 76.0728 54.168 76.9475 54.36L78.2595 54.68V55H68.1795ZM89.5485 55.48C87.9272 55.48 86.5192 55.1493 85.3245 54.488C84.1298 53.8053 83.2018 52.8453 82.5405 51.608C81.9005 50.3707 81.5805 48.92 81.5805 47.256C81.5805 45.592 81.9218 44.152 82.6045 42.936C83.3085 41.72 84.2578 40.7813 85.4525 40.12C86.6685 39.4587 88.0338 39.128 89.5485 39.128C91.0632 39.128 92.4178 39.4587 93.6125 40.12C94.8072 40.76 95.7458 41.688 96.4285 42.904C97.1325 44.12 97.4845 45.5707 97.4845 47.256C97.4845 48.9413 97.1538 50.4027 96.4925 51.64C95.8525 52.856 94.9352 53.8053 93.7405 54.488C92.5672 55.1493 91.1698 55.48 89.5485 55.48ZM89.5485 54.84C90.2952 54.84 90.8925 54.6267 91.3405 54.2C91.7885 53.7733 92.1085 53.016 92.3005 51.928C92.5138 50.84 92.6205 49.304 92.6205 47.32C92.6205 45.3147 92.5138 43.768 92.3005 42.68C92.1085 41.592 91.7885 40.8347 91.3405 40.408C90.8925 39.9813 90.2952 39.768 89.5485 39.768C88.8018 39.768 88.1938 39.9813 87.7245 40.408C87.2765 40.8347 86.9458 41.592 86.7325 42.68C86.5405 43.768 86.4445 45.3147 86.4445 47.32C86.4445 49.304 86.5405 50.84 86.7325 51.928C86.9458 53.016 87.2765 53.7733 87.7245 54.2C88.1938 54.6267 88.8018 54.84 89.5485 54.84ZM104.557 55.48C103.725 55.48 102.957 55.32 102.253 55C101.57 54.68 101.026 54.168 100.621 53.464C100.237 52.7387 100.056 51.7893 100.077 50.616L100.173 42.392C100.173 41.9013 100.088 41.5493 99.917 41.336C99.7463 41.1227 99.4797 40.9733 99.117 40.888L98.733 40.76V40.44L104.461 39.32L104.781 39.64L104.621 44.184V51.896C104.621 52.5787 104.813 53.08 105.197 53.4C105.602 53.72 106.104 53.88 106.701 53.88C107.298 53.88 107.832 53.7947 108.301 53.624C108.77 53.4533 109.24 53.1973 109.709 52.856L109.837 42.424C109.837 41.9333 109.762 41.592 109.613 41.4C109.464 41.1867 109.186 41.0373 108.781 40.952L108.461 40.856V40.536L114.061 39.32L114.381 39.64L114.285 44.184V52.856C114.285 53.3253 114.349 53.688 114.477 53.944C114.605 54.2 114.882 54.4133 115.309 54.584L115.629 54.68V55L110.029 55.32L109.741 53.432C109.037 54.008 108.269 54.4987 107.437 54.904C106.626 55.288 105.666 55.48 104.557 55.48ZM123.929 49.464C122.457 49.464 121.209 49.2187 120.185 48.728V49.816C120.185 50.4773 120.515 50.872 121.177 51L127.193 52.12C128.195 52.312 129.102 52.568 129.913 52.888C130.723 53.1867 131.374 53.624 131.865 54.2C132.355 54.7547 132.601 55.5227 132.601 56.504C132.601 57.5493 132.259 58.5093 131.577 59.384C130.894 60.28 129.881 60.9947 128.537 61.528C127.214 62.0827 125.561 62.36 123.577 62.36C121.87 62.36 120.515 62.1787 119.513 61.816C118.51 61.4747 117.795 61.0267 117.368 60.472C116.963 59.9173 116.761 59.3307 116.761 58.712C116.761 57.944 117.017 57.1653 117.529 56.376C118.062 55.608 118.713 54.9893 119.481 54.52C118.819 54.264 118.339 53.9333 118.041 53.528C117.742 53.1227 117.593 52.6853 117.593 52.216C117.593 51.7893 117.699 51.3947 117.913 51.032C118.147 50.648 118.425 50.264 118.745 49.88L119.801 48.536C118.243 47.64 117.465 46.232 117.465 44.312C117.465 42.776 118.009 41.528 119.097 40.568C120.206 39.608 121.827 39.128 123.961 39.128C125.049 39.128 125.998 39.256 126.809 39.512C127.641 39.768 128.323 40.1307 128.857 40.6C129.539 40.4933 130.179 40.3227 130.777 40.088C131.395 39.832 131.95 39.4907 132.441 39.064L132.889 39.384V41.016H129.273C130.041 41.8693 130.425 42.968 130.425 44.312C130.425 45.8053 129.87 47.0427 128.761 48.024C127.673 48.984 126.062 49.464 123.929 49.464ZM123.897 48.824C124.75 48.824 125.369 48.472 125.753 47.768C126.158 47.064 126.361 45.8907 126.361 44.248C126.361 42.6053 126.158 41.4533 125.753 40.792C125.369 40.1093 124.771 39.768 123.961 39.768C123.171 39.768 122.574 40.12 122.169 40.824C121.763 41.5067 121.561 42.6693 121.561 44.312C121.561 45.9547 121.742 47.1173 122.105 47.8C122.489 48.4827 123.086 48.824 123.897 48.824ZM119.129 57.688C119.129 58.9467 119.513 59.896 120.281 60.536C121.07 61.176 122.307 61.496 123.993 61.496C125.763 61.496 127.097 61.208 127.993 60.632C128.889 60.056 129.337 59.2453 129.337 58.2C129.337 57.6027 129.113 57.1227 128.665 56.76C128.238 56.3973 127.502 56.12 126.457 55.928L120.665 54.84C120.494 54.7973 120.323 54.7547 120.153 54.712C119.854 55.1387 119.609 55.6187 119.417 56.152C119.225 56.7067 119.129 57.2187 119.129 57.688ZM133.924 55V54.68L134.308 54.552C135.076 54.296 135.46 53.7627 135.46 52.952V35.864C135.46 35.416 135.385 35.0853 135.236 34.872C135.086 34.6587 134.798 34.4987 134.372 34.392L133.892 34.264V33.944L139.524 32.568L140.036 32.856L139.908 37.368V41.368C140.654 40.7493 141.454 40.2267 142.308 39.8C143.182 39.352 144.142 39.128 145.188 39.128C146.574 39.128 147.673 39.5227 148.484 40.312C149.316 41.1013 149.732 42.3173 149.732 43.96V52.984C149.732 53.4107 149.817 53.752 149.988 54.008C150.158 54.264 150.457 54.456 150.884 54.584L151.14 54.68V55H143.652V54.68L144.036 54.584C144.804 54.328 145.188 53.784 145.188 52.952V42.904C145.188 42.0507 145.038 41.464 144.74 41.144C144.462 40.824 143.961 40.664 143.236 40.664C142.766 40.664 142.254 40.76 141.7 40.952C141.145 41.1227 140.58 41.432 140.004 41.88V53.016C140.004 53.848 140.388 54.3813 141.156 54.616L141.411 54.68V55H133.924ZM158.314 55.48C156.948 55.48 155.882 55.1387 155.114 54.456C154.367 53.7733 153.994 52.6853 153.994 51.192V40.248H151.786V39.928L152.554 39.8C153.215 39.6507 153.78 39.4373 154.25 39.16C154.74 38.8827 155.22 38.5093 155.69 38.04L158.314 35.128H158.634L158.538 39.608H162.122V40.248H158.506V51.768C158.506 52.5147 158.666 53.08 158.986 53.464C159.327 53.848 159.754 54.04 160.266 54.04C160.714 54.04 161.108 53.9333 161.45 53.72C161.791 53.4853 162.132 53.176 162.474 52.792L162.794 53.112C162.367 53.8373 161.78 54.4133 161.034 54.84C160.287 55.2667 159.38 55.48 158.314 55.48ZM169.52 55.48C168.474 55.48 167.536 55.352 166.704 55.096C165.872 54.8613 165.104 54.5627 164.4 54.2L164.432 50.392H164.752L165.84 52.312C166.309 53.1653 166.821 53.8053 167.376 54.232C167.952 54.6373 168.677 54.84 169.552 54.84C170.576 54.84 171.397 54.616 172.016 54.168C172.656 53.6987 172.976 53.08 172.976 52.312C172.976 51.608 172.752 51.032 172.304 50.584C171.856 50.136 171.024 49.7307 169.808 49.368L168.464 48.952C167.162 48.568 166.138 47.9707 165.392 47.16C164.645 46.3493 164.272 45.3573 164.272 44.184C164.272 42.776 164.826 41.5813 165.936 40.6C167.045 39.6187 168.634 39.128 170.704 39.128C171.536 39.128 172.314 39.224 173.04 39.416C173.786 39.5867 174.501 39.8533 175.184 40.216L174.992 43.672H174.672L173.552 41.688C173.146 40.984 172.741 40.4933 172.336 40.216C171.952 39.9173 171.365 39.768 170.576 39.768C169.85 39.768 169.168 39.9707 168.528 40.376C167.888 40.7813 167.568 41.3573 167.568 42.104C167.568 42.8293 167.834 43.4053 168.368 43.832C168.922 44.2587 169.733 44.6533 170.8 45.016L172.24 45.432C173.776 45.9013 174.874 46.552 175.536 47.384C176.197 48.1947 176.528 49.176 176.528 50.328C176.528 51.8853 175.909 53.1333 174.672 54.072C173.456 55.0107 171.738 55.48 169.52 55.48Z" fill="white" fill-opacity="0.87"/>
<g opacity="0.6">
<path d="M192 46.7193L180 39.7894L192 19L204 39.7894L192 46.7191V19.0001L192 46.7193Z" stroke="#F7F4EA" stroke-width="0.3" stroke-linecap="round" stroke-linejoin="round"/>
<path d="M192 60.8768L180 53.9471L192 33.1577M192 60.8768L204 53.9471L192 33.1577M192 60.8768L192 33.1577" stroke="#DED9E2" stroke-width="0.3" stroke-linecap="round" stroke-linejoin="round"/>
<path d="M192 56.1577L180 49.228L192 28.4385M192 56.1577L204 49.228L192 28.4385M192 56.1577L192 28.4385" stroke="#80A1D4" stroke-width="0.3" stroke-linecap="round" stroke-linejoin="round"/>
<path d="M192 23.7192L180 44.5088L192 51.4385L192 23.7192ZM192 23.7192L204 44.5087L192 51.4384V23.7192Z" stroke="#75C9C8" stroke-width="0.3" stroke-linecap="round" stroke-linejoin="round"/>
</g>
</svg>
